<svg version="1.1" viewBox="0.0 0.0 53.48031496062992 42.960629921259844" fill="none" stroke="none" stroke-linecap="square" stroke-miterlimit="10" xmlns:xlink="http://www.w3.org/1999/xlink" xmlns="http://www.w3.org/2000/svg"><clipPath id="p.0"><path d="m0 0l53.480316 0l0 42.96063l-53.480316 0l0 -42.96063z" clip-rule="nonzero"/></clipPath><g clip-path="url(#p.0)"><path fill="#000000" fill-opacity="0.0" d="m0 0l53.480316 0l0 42.96063l-53.480316 0z" fill-rule="evenodd"/><path fill="#000000" fill-opacity="0.0" d="m-9.716536 -7.530184l72.91338 0l0 56.377953l-72.91338 0z" fill-rule="evenodd"/><path fill="#2b90d9" d="m15.182669 42.606922q-4.515625 0 -8.1875 -1.546875q-3.6562498 -1.5625 -6.0625 -4.5l6.328125 -7.515627q1.640625 2.125 3.40625 3.203127q1.765625 1.078125 3.703125 1.078125q5.15625 0 5.15625 -5.968752l0 -17.65625l-14.203125 0l0 -8.984375l25.703125 0l0 25.921875q0 8.046877 -4.046875 12.015627q-4.046875 3.953125 -11.796875 3.953125z" fill-rule="nonzero"/><path fill="#000000" d="m43.04168 42.310047q-2.8125 0 -4.75 -1.875q-1.9375 -1.875 -1.9375 -4.75q0 -3.0 1.9375 -4.781252q1.9375 -1.796875 4.75 -1.796875q2.828125 0 4.75 1.796875q1.9375 1.7812519 1.9375 4.781252q0 2.875 -1.9375 4.75q-1.921875 1.875 -4.75 1.875z" fill-rule="nonzero"/></g></svg>